<svg width="24" height="24" viewBox="0 0 24 24" fill="none" xmlns="http://www.w3.org/2000/svg">
    <path d="M20.42 4.58C19.9183 4.07658 19.3222 3.67714 18.6658 3.40104C18.0094 3.12494 17.3057 2.97677 16.595 2.96448C15.8843 2.95219 15.1759 3.07603 14.5104 3.32914C13.8449 3.58225 13.2357 3.96024 12.717 4.44L12 5.1L11.283 4.44C10.7643 3.96024 10.1551 3.58225 9.48957 3.32914C8.82406 3.07603 8.11569 2.95219 7.40497 2.96448C6.69425 2.97677 5.99059 3.12494 5.33417 3.40104C4.67776 3.67714 4.08166 4.07658 3.58 4.58C1.46 6.7 1.33 10.28 4 13L12 21L20 13C22.67 10.28 22.54 6.7 20.42 4.58Z" stroke="#703BF7" stroke-width="2" stroke-linecap="round" stroke-linejoin="round"/>
</svg> 